<svg width="600" height="600" viewBox="0 0 600 600" fill="none" xmlns="http://www.w3.org/2000/svg">
<path d="M280.741 75.0036C275.858 75.1372 271.219 77.1714 267.813 80.6734C264.407 84.1753 262.502 88.8684 262.504 93.7536V131.254C262.502 133.717 262.985 136.157 263.926 138.434C264.867 140.711 266.248 142.78 267.99 144.523C269.731 146.266 271.799 147.648 274.075 148.592C276.351 149.535 278.79 150.02 281.254 150.02C283.717 150.02 286.157 149.535 288.433 148.592C290.709 147.648 292.777 146.266 294.518 144.523C296.259 142.78 297.64 140.711 298.581 138.434C299.523 136.157 300.006 133.717 300.004 131.254V93.7536C300.005 91.2476 299.503 88.7668 298.529 86.4579C297.555 84.1489 296.128 82.0587 294.332 80.3107C292.536 78.5628 290.408 77.1925 288.074 76.281C285.74 75.3694 283.246 74.9351 280.741 75.0036ZM135.136 135.428C131.452 135.485 127.867 136.625 124.827 138.707C121.788 140.789 119.429 143.721 118.046 147.136C116.663 150.55 116.317 154.297 117.051 157.907C117.784 161.517 119.566 164.831 122.172 167.435L148.685 194.022C151.305 196.667 154.654 198.47 158.304 199.202C161.953 199.933 165.738 199.559 169.175 198.128C172.611 196.697 175.542 194.274 177.594 191.168C179.646 188.062 180.724 184.414 180.692 180.692C180.672 175.745 178.698 171.006 175.199 167.508L148.685 140.922C146.91 139.145 144.796 137.743 142.468 136.8C140.14 135.856 137.647 135.39 135.136 135.428ZM426.42 135.428C421.678 135.606 417.179 137.568 413.822 140.922L387.308 167.435C385.462 169.152 383.98 171.223 382.952 173.525C381.924 175.827 381.371 178.313 381.325 180.833C381.279 183.354 381.742 185.858 382.685 188.196C383.629 190.534 385.034 192.658 386.817 194.441C388.599 196.223 390.723 197.629 393.061 198.572C395.399 199.516 397.903 199.978 400.424 199.932C402.945 199.887 405.43 199.333 407.732 198.305C410.034 197.277 412.105 195.795 413.822 193.949L440.336 167.435C442.09 165.7 443.485 163.636 444.44 161.362C445.395 159.087 445.892 156.646 445.902 154.178C445.894 151.656 445.378 149.162 444.387 146.842C443.396 144.523 441.948 142.427 440.131 140.678C438.314 138.929 436.164 137.563 433.808 136.661C431.453 135.76 428.94 135.34 426.42 135.428ZM279.642 187.504C257.532 187.821 236.005 194.648 217.752 207.131C199.499 219.614 185.33 237.2 177.015 257.69C168.7 278.18 166.608 300.667 171.001 322.339C175.394 344.012 186.076 363.909 201.713 379.545C222.912 400.133 251.362 411.554 280.913 411.338C310.464 411.122 338.744 399.287 359.64 378.39C380.537 357.494 392.372 329.214 392.588 299.663C392.804 270.112 381.384 241.662 360.795 220.463C350.159 209.822 337.497 201.422 323.558 195.761C309.619 190.1 294.686 187.292 279.642 187.504ZM75.0037 281.254C72.5411 281.253 70.1026 281.738 67.8273 282.68C65.552 283.622 63.4846 285.003 61.7431 286.744C60.0016 288.485 58.6201 290.552 57.6776 292.827C56.7351 295.103 56.25 297.541 56.25 300.004C56.25 302.466 56.7351 304.905 57.6776 307.18C58.6201 309.455 60.0016 311.522 61.7431 313.263C63.4846 315.004 65.552 316.385 67.8273 317.327C70.1026 318.269 72.5411 318.754 75.0037 318.754H112.504C122.891 318.754 131.254 310.391 131.254 300.004C131.254 289.616 122.891 281.254 112.504 281.254H75.0037ZM450.004 281.254C447.54 281.252 445.101 281.735 442.824 282.677C440.547 283.618 438.479 284.999 436.736 286.74C434.993 288.481 433.611 290.549 432.668 292.825C431.725 295.101 431.239 297.54 431.239 300.004C431.239 302.467 431.725 304.906 432.668 307.182C433.611 309.458 434.993 311.526 436.736 313.267C438.479 315.008 440.547 316.389 442.824 317.331C445.101 318.272 447.54 318.755 450.004 318.754H487.504C497.891 318.754 506.254 310.391 506.254 300.004C506.254 289.616 497.891 281.254 487.504 281.254H450.004ZM161.43 400.565C156.635 400.699 152.075 402.665 148.685 406.058L122.172 432.572C120.428 434.312 119.045 436.379 118.101 438.654C117.157 440.93 116.67 443.369 116.669 445.832C116.668 448.295 117.153 450.735 118.095 453.011C119.037 455.287 120.419 457.355 122.16 459.097C123.902 460.839 125.97 462.22 128.246 463.162C130.522 464.105 132.962 464.589 135.425 464.588C137.889 464.587 140.328 464.1 142.603 463.156C144.878 462.212 146.945 460.829 148.685 459.086L175.199 432.572C176.944 430.834 178.327 428.767 179.27 426.492C180.213 424.217 180.696 421.778 180.692 419.315C180.693 416.809 180.192 414.328 179.218 412.019C178.243 409.71 176.816 407.62 175.02 405.872C173.225 404.124 171.097 402.754 168.762 401.842C166.428 400.931 163.935 400.497 161.43 400.565ZM400.346 400.565C396.656 400.607 393.06 401.738 390.01 403.814C386.96 405.891 384.59 408.822 383.198 412.239C381.806 415.657 381.453 419.409 382.185 423.026C382.916 426.643 384.698 429.964 387.308 432.572L413.822 459.086C415.561 460.831 417.627 462.215 419.902 463.16C422.177 464.105 424.616 464.592 427.079 464.592C429.542 464.592 431.981 464.105 434.256 463.16C436.531 462.215 438.597 460.831 440.336 459.086C442.09 457.351 443.485 455.287 444.44 453.012C445.395 450.737 445.892 448.296 445.902 445.829C445.874 440.847 443.872 436.08 440.336 432.572L413.822 406.058C412.055 404.291 409.953 402.894 407.639 401.951C405.324 401.007 402.845 400.536 400.346 400.565ZM280.741 450.004C275.858 450.137 271.219 452.171 267.813 455.673C264.407 459.175 262.502 463.868 262.504 468.754V506.254C262.504 508.716 262.989 511.154 263.931 513.429C264.873 515.704 266.254 517.771 267.995 519.512C269.737 521.253 271.804 522.634 274.078 523.576C276.353 524.519 278.791 525.004 281.254 525.004C283.716 525.004 286.154 524.519 288.429 523.576C290.704 522.634 292.771 521.253 294.512 519.512C296.253 517.771 297.634 515.704 298.576 513.429C299.519 511.154 300.004 508.716 300.004 506.254V468.754C300.005 466.248 299.503 463.767 298.529 461.458C297.555 459.149 296.128 457.059 294.332 455.311C292.536 453.563 290.408 452.192 288.074 451.281C285.74 450.369 283.246 449.935 280.741 450.004Z" fill="#F9C440"/>
</svg>
