<svg width="512" height="472" viewBox="0 0 512 472" fill="none" xmlns="http://www.w3.org/2000/svg">
<g clip-path="url(#clip0_239_45)">
<path d="M240.064 433.06C122.16 433.06 26.24 344.634 26.24 235.956C26.24 128.354 120.832 39.9724 237.088 38.9399H237.136C239.424 38.9399 241.472 40.1789 242.4 42.0964C243.328 44.0287 242.928 46.3002 241.36 47.8637C207.024 81.9657 188.096 126.968 188.096 174.566C188.096 277.403 278.848 361.065 390.4 361.065L390.608 364.723L391.04 361.036C393.632 360.814 396.096 362.039 397.136 364C398.176 365.962 398.24 368.293 396.64 369.886C356.224 410.035 299.136 433.06 240.064 433.06ZM224.016 50.0762C120.176 57.3037 37.76 138.252 37.76 235.97C37.76 338.793 128.512 422.44 240.064 422.44C292.336 422.44 341.104 404.401 378.832 371.405C266.288 365.829 176.592 279.675 176.592 174.566C176.592 128.546 193.328 84.8124 224.016 50.0762ZM448 315.06C444.816 315.06 442.24 312.685 442.24 309.75V285.56H416C412.816 285.56 410.24 283.185 410.24 280.25C410.24 277.315 412.816 274.94 416 274.94H442.24V250.75C442.24 247.815 444.816 245.44 448 245.44C451.184 245.44 453.76 247.815 453.76 250.75V274.94H480C483.184 274.94 485.76 277.315 485.76 280.25C485.76 283.185 483.184 285.56 480 285.56H453.76V309.75C453.76 312.685 451.184 315.06 448 315.06ZM288 182.31C284.816 182.31 282.24 179.935 282.24 177V152.81H256C252.816 152.81 250.24 150.435 250.24 147.5C250.24 144.565 252.816 142.19 256 142.19H282.24V118C282.24 115.065 284.816 112.69 288 112.69C291.184 112.69 293.76 115.079 293.76 118V142.19H320C323.184 142.19 325.76 144.565 325.76 147.5C325.76 150.435 323.184 152.81 320 152.81H293.76V177C293.76 179.935 291.184 182.31 288 182.31ZM384 123.31C380.816 123.31 378.24 120.935 378.24 118V93.8099H352C348.816 93.8099 346.24 91.4352 346.24 88.4999C346.24 85.5647 348.816 83.1899 352 83.1899H378.24V58.9999C378.24 56.0647 380.816 53.6899 384 53.6899C387.184 53.6899 389.76 56.0794 389.76 58.9999V83.1899H416C419.184 83.1899 421.76 85.5647 421.76 88.4999C421.76 91.4352 419.184 93.8099 416 93.8099H389.76V118C389.76 120.935 387.184 123.31 384 123.31Z" fill="white"/>
</g>
<defs>
<clipPath id="clip0_239_45">
<rect width="512" height="472" fill="white"/>
</clipPath>
</defs>
</svg>
