<svg width="600" height="514" viewBox="0 0 600 514" fill="none" xmlns="http://www.w3.org/2000/svg">
<path d="M132.787 215.989C132.477 219.017 129.626 221.468 126.097 221.79C83.0867 225.722 50 261.996 50 306.153C50 352.934 87.8708 390.857 134.587 390.857H457.068C508.393 390.857 550 350.78 550 301.343C550 253.955 511.773 215.168 463.403 212.033C459.719 211.794 456.73 209.574 456.024 206.467C445.221 158.948 395.388 123.239 336.473 123.239C298.169 123.239 264.049 138.1 241.901 161.738C239.749 164.035 236.148 165.09 232.98 163.949C224.442 160.875 215.426 159.387 205.334 159.387C167.272 159.387 136.031 184.271 132.787 215.989Z" fill="#F3F7FE" stroke="black" stroke-width="2" stroke-miterlimit="10" stroke-linecap="round" stroke-linejoin="round"/>
</svg>
