<svg width="600" height="502" viewBox="0 0 600 502" fill="none" xmlns="http://www.w3.org/2000/svg">
<path d="M18.75 232.175C166.875 133.344 237.187 236.097 326.25 236.097C396.562 236.097 483.75 133.344 581.25 217.272C469.688 172.562 428.437 268.256 312.187 268.256C223.125 268.256 188.438 179.622 18.75 232.175Z" fill="#979797"/>
<path d="M581.25 311.397C495 251.784 439.687 300.415 368.437 325.515C323.437 341.203 276.562 337.281 229.688 295.709C263.437 305.906 337.5 339.634 410.625 280.022C347.812 303.553 269.062 287.081 205.312 260.412C135 231.39 77.8125 226.684 18.75 280.022C55.3125 256.49 108.75 261.981 150 271.394C123.75 272.178 66.5625 277.669 18.75 339.634C163.125 239.234 215.625 376.5 329.062 376.5C438.75 376.5 428.438 273.747 581.25 311.397Z" fill="#D0D0D0"/>
<path d="M18.75 198.447C36.5625 156.091 161.25 94.9096 260.625 199.231C121.875 145.894 18.75 198.447 18.75 198.447Z" fill="#979797"/>
<path d="M394.687 155.306C452.812 101.969 545.625 130.991 581.25 157.659C552.187 154.522 464.062 138.834 426.562 173.347C366.562 226.684 296.25 218.841 273.75 200.016C273.75 199.231 345 201.584 394.687 155.306Z" fill="#D0D0D0"/>
<path d="M425.625 277.669C500.625 173.347 581.25 261.197 581.25 261.197C493.125 235.313 425.625 277.669 425.625 277.669Z" fill="#979797"/>
</svg>
