<svg width="600" height="542" viewBox="0 0 600 542" fill="none" xmlns="http://www.w3.org/2000/svg">
<g clip-path="url(#clip0_238_12)">
<g clip-path="url(#clip1_238_12)">
<path d="M194.531 261.473C220.42 261.473 241.406 242.515 241.406 219.129C241.406 195.743 220.42 176.785 194.531 176.785C168.643 176.785 147.656 195.743 147.656 219.129C147.656 242.515 168.643 261.473 194.531 261.473Z" fill="url(#paint0_linear_238_12)" stroke="#F8AF18" stroke-width="4" stroke-miterlimit="10"/>
<path d="M194.531 148.627V121.738M194.531 316.52V289.631M249.727 169.375L270.82 150.426M118.359 287.938L139.453 268.989M139.453 169.375L118.359 150.32M270.82 288.043L249.727 268.989M86.7188 219.129H116.484M302.344 219.129H272.578" stroke="#FBBF24" stroke-width="12" stroke-miterlimit="10" stroke-linecap="round"/>
</g>
<g clip-path="url(#clip2_238_12)">
<path d="M435.937 266.766L433.008 266.871C438.63 246.308 435.932 224.606 425.399 205.681C414.867 186.756 397.194 171.855 375.569 163.666C353.944 155.476 329.791 154.538 307.468 161.02C285.144 167.502 266.12 180.978 253.828 199.016C243.877 193.676 232.54 190.808 220.966 190.704C209.393 190.6 197.994 193.263 187.928 198.422C177.861 203.582 169.484 211.055 163.646 220.083C157.808 229.111 154.718 239.373 154.687 249.828C154.718 253.021 155.032 256.207 155.625 259.355C138.35 262.24 122.897 270.861 112.306 283.521C101.715 296.182 96.7548 311.966 98.4009 327.765C100.047 343.564 108.181 358.234 121.2 368.888C134.22 379.541 151.183 385.406 168.75 385.328L173.437 385.116V385.328H435.937C453.342 385.328 470.034 379.082 482.341 367.965C494.648 356.848 501.562 341.769 501.562 326.047C501.562 310.325 494.648 295.246 482.341 284.129C470.034 273.011 453.342 266.766 435.937 266.766Z" fill="url(#paint1_linear_238_12)" stroke="#E6EFFC" stroke-width="6" stroke-miterlimit="10"/>
</g>
</g>
<defs>
<linearGradient id="paint0_linear_238_12" x1="171.094" y1="182.502" x2="211.188" y2="259.398" gradientUnits="userSpaceOnUse">
<stop stop-color="#FBBF24"/>
<stop offset="0.5" stop-color="#FBBF24"/>
<stop offset="1" stop-color="#F59E0B"/>
</linearGradient>
<linearGradient id="paint1_linear_238_12" x1="211.523" y1="185.995" x2="344.932" y2="441.974" gradientUnits="userSpaceOnUse">
<stop stop-color="#F3F7FE"/>
<stop offset="0.5" stop-color="#F3F7FE"/>
<stop offset="1" stop-color="#DEEAFB"/>
</linearGradient>
<clipPath id="clip0_238_12">
<rect width="425.391" height="273.117" fill="white" transform="translate(79.6875 115.387)"/>
</clipPath>
<clipPath id="clip1_238_12">
<rect width="229.688" height="207.484" fill="white" transform="translate(79.6875 115.387)"/>
</clipPath>
<clipPath id="clip2_238_12">
<rect width="410.156" height="235.008" fill="white" transform="translate(94.9219 153.496)"/>
</clipPath>
</defs>
</svg>
