<svg width="600" height="512" viewBox="0 0 600 512" fill="none" xmlns="http://www.w3.org/2000/svg">
<path d="M330 179.2C403.937 179.2 445.88 219.484 451.98 268.134L453.846 268.134C501.428 268.134 540 299.802 540 338.867C540 377.932 501.428 409.6 453.846 409.6H206.154C158.572 409.6 120 377.932 120 338.867C120 301.249 155.768 270.49 200.906 268.263L208.02 268.134C214.155 219.164 256.063 179.2 330 179.2ZM330 204.8C280.517 204.8 237.387 237.32 237.387 282.239C237.387 289.356 229.767 294.941 221.043 294.941L204.545 294.94C174.421 294.94 150 314.877 150 339.47C150 364.063 174.421 384 204.545 384H455.455C485.579 384 510 364.063 510 339.47C510 314.877 485.579 294.94 455.455 294.94L438.958 294.941C430.233 294.941 422.613 289.356 422.613 282.239C422.613 236.743 379.483 204.8 330 204.8ZM175.291 76.824C195.265 77.7384 214.659 82.6504 232.147 91.2664C262.564 106.252 283.012 130.313 291.505 157.127C280.008 159.254 269.264 162.401 259.315 166.433C253.863 144.059 237.465 123.865 210 112.002C204.376 109.573 199.801 107.611 193.944 105.634C196.526 137.055 192.856 169.185 175.185 193.815C157.798 215.652 135.329 230.242 98.4295 242.411C102.606 245.587 107.153 248.441 111.956 251.075C121.221 256.155 130.462 260.078 139.558 262.872C129.474 268.544 120.578 275.567 113.197 283.622C110.298 282.487 107.426 281.193 104.59 279.797C88.0713 271.657 74.0482 260.606 63.3345 247.331C56.3127 238.628 60.8555 226.61 72.5135 223.05C113.777 210.447 136.009 196.264 148.724 175.551C162.611 152.931 165.176 128.942 155.957 96.7113C152.959 86.2277 162.663 76.2458 175.291 76.824Z" fill="white"/>
</svg>
