<svg width="600" height="428" viewBox="0 0 600 428" fill="none" xmlns="http://www.w3.org/2000/svg">
<path d="M221.25 303.612C215.625 314.312 220.313 325.681 231.563 329.025C242.813 331.7 256.875 325.681 262.5 314.312C269.062 301.606 269.062 283.55 265.312 263.487C243.75 276.862 227.812 290.237 221.25 303.612ZM348.75 314.312C355.313 301.606 355.312 283.55 351.562 263.487C330 276.862 314.062 290.906 307.5 303.612C301.875 314.312 306.563 325.681 317.813 329.025C329.063 331.7 343.125 325.012 348.75 314.312ZM436.875 263.487C415.312 276.862 399.375 290.906 392.813 303.612C387.188 314.312 391.875 325.681 403.125 329.025C414.375 331.7 428.438 325.681 434.063 314.312C441.563 301.606 441.562 283.55 436.875 263.487ZM135 303.612C129.375 314.312 134.063 325.681 145.313 329.025C156.563 331.7 170.625 325.681 176.25 314.312C182.812 301.606 182.813 283.55 179.063 263.487C157.5 276.862 141.562 290.237 135 303.612ZM153.75 388.544C148.125 399.244 152.813 410.612 164.063 413.956C175.313 416.631 189.375 410.612 195 399.244C201.562 386.537 201.563 368.481 197.813 348.419C176.25 361.794 160.312 375.837 153.75 388.544ZM281.25 399.244C287.812 386.537 287.812 368.481 284.062 348.419C262.5 361.794 246.562 375.837 240 388.544C234.375 399.244 239.063 410.612 250.313 413.956C261.563 416.631 275.625 410.612 281.25 399.244ZM369.375 348.419C347.813 361.794 331.875 375.837 325.313 388.544C319.688 399.244 324.375 410.612 335.625 413.956C346.875 416.631 360.937 410.612 366.562 399.244C374.062 386.537 374.063 369.15 369.375 348.419ZM67.5 388.544C61.875 399.244 66.5625 410.612 77.8125 413.956C89.0625 416.631 103.125 410.612 108.75 399.244C115.313 386.537 115.312 368.481 111.562 348.419C90 361.794 74.0625 375.837 67.5 388.544Z" fill="#75D6FF"/>
<path d="M177.187 225.369C169.687 225.369 161.25 224.7 153.75 222.694C122.812 215.337 103.125 195.275 103.125 172.537C103.125 157.156 112.5 142.444 128.437 132.412C132.187 129.737 136.875 127.731 142.5 125.725L147.187 113.687C159.375 82.9249 199.688 61.525 243.75 61.525C248.438 61.525 253.125 61.525 257.812 62.1937C261.563 62.8625 266.25 63.5312 270 64.2L271.875 61.525C289.687 38.1187 324.375 24.075 360.938 24.075C417.188 24.075 463.125 56.8437 463.125 96.9687V104.325C467.813 105.662 471.562 107 476.25 108.337C503.437 119.706 520.312 140.437 520.312 162.506C520.312 191.931 492.188 217.344 451.875 223.362C445.313 224.7 438.75 224.7 432.187 224.7L177.187 225.369Z" fill="white"/>
<path d="M360.937 34.775C408.75 34.775 448.125 62.8625 448.125 96.9688V101.65C427.5 102.987 409.688 108.338 395.625 117.7C405.938 113.019 419.062 111.013 432.187 111.013C436.875 111.013 441.562 111.681 446.25 111.681C453.75 113.019 461.25 115.025 468.75 117.7C490.312 126.394 505.313 143.781 505.313 163.175C505.313 187.919 480.937 208.65 448.125 214C442.5 214.669 437.812 215.338 431.25 215.338H177.187C170.625 215.338 164.062 214.669 158.437 213.331C135 207.981 117.188 191.931 117.188 173.206C117.188 160.5 124.688 149.131 137.812 141.106C143.438 137.763 150 135.087 157.5 133.081C164.062 131.744 170.625 130.406 177.187 130.406C195.937 130.406 213.75 137.094 224.062 147.125H225C212.813 130.406 188.438 119.038 161.25 117.031C171.563 91.6188 204.375 72.8937 243.75 72.8937C247.5 72.8937 252.187 72.8937 255.937 73.5625C263.437 74.2313 271.875 76.2375 278.438 78.2437C304.687 86.9375 324.375 104.325 328.125 125.056V124.388C328.125 100.313 311.25 78.9125 285 66.875C299.063 47.4812 328.125 34.775 360.937 34.775ZM360.937 13.375C320.625 13.375 283.125 28.0875 262.5 52.1625H259.688C253.125 51.4938 248.438 51.4937 242.813 51.4937C191.25 51.4937 146.25 76.2375 131.25 111.013L127.5 119.706C123.75 121.044 120 123.05 117.188 125.056C97.5 137.094 86.25 154.481 86.25 173.206C86.25 200.625 110.625 224.7 147.188 233.394C156.562 235.4 165.938 236.738 175.313 236.738H431.25C438.75 236.738 447.187 236.069 454.687 234.731C501.562 227.375 534.375 197.95 534.375 163.175C534.375 137.094 514.687 113.019 482.812 99.6437C480.937 98.975 480 98.3063 478.125 97.6375V96.9688C478.125 50.825 425.625 13.375 360.937 13.375Z" fill="#B6C1D1"/>
</svg>
