<svg width="600" height="475" viewBox="0 0 600 475" fill="none" xmlns="http://www.w3.org/2000/svg">
<path d="M200.216 390.922C193.952 398.596 182.43 401.498 174.464 397.423C166.498 393.348 165.117 383.824 171.381 376.15C171.381 376.15 178.833 366.744 204.769 356.104C204.769 356.104 209.909 353.772 209.539 358.218C207.944 381.309 200.216 390.922 200.216 390.922Z" fill="#92D3F5"/>
<path d="M204.043 357.041C208.578 367.929 198.021 389.694 198.021 389.694C190.032 398.727 180.24 399.608 171.839 394.95C171.839 394.95 194.502 388.543 204.043 357.041Z" fill="#61B2E4"/>
<path d="M147.714 340.974C141.451 348.647 129.928 351.55 121.963 347.474C113.997 343.399 112.616 333.876 118.879 326.202C118.879 326.202 126.332 316.796 152.268 306.155C152.268 306.155 157.407 303.824 157.037 308.27C155.442 331.361 147.714 340.974 147.714 340.974Z" fill="#92D3F5"/>
<path d="M151.542 307.093C156.076 317.981 145.519 339.746 145.519 339.746C137.53 348.779 127.738 349.659 119.338 345.002C119.338 345.002 142 338.595 151.542 307.093Z" fill="#61B2E4"/>
<path d="M470.235 340.974C463.972 348.647 452.449 351.55 444.483 347.474C436.517 343.399 435.137 333.876 441.4 326.202C441.4 326.202 448.852 316.796 474.788 306.155C474.788 306.155 479.928 303.824 479.558 308.27C477.963 331.361 470.235 340.974 470.235 340.974Z" fill="#92D3F5"/>
<path d="M474.062 307.093C478.597 317.981 468.04 339.746 468.04 339.746C460.051 348.779 450.259 349.659 441.858 345.002C441.857 345.002 464.521 338.595 474.062 307.093Z" fill="#61B2E4"/>
<path d="M400.018 390.922C393.754 398.596 382.232 401.498 374.266 397.423C366.3 393.348 364.919 383.824 371.183 376.15C371.183 376.15 378.635 366.744 404.571 356.104C404.571 356.104 409.711 353.772 409.341 358.218C407.745 381.309 400.018 390.922 400.018 390.922Z" fill="#92D3F5"/>
<path d="M403.845 357.041C408.379 367.929 397.823 389.694 397.823 389.694C389.833 398.727 380.042 399.608 371.641 394.95C371.64 394.951 394.303 388.543 403.845 357.041Z" fill="#61B2E4"/>
<path d="M160.656 147.162C160.398 149.494 158.011 151.381 155.055 151.631C119.225 154.67 91.6667 182.6 91.6667 216.597C91.6667 252.623 123.226 281.828 162.157 281.828H430.89C473.661 281.828 508.333 250.964 508.333 212.892C508.333 176.406 476.49 146.541 436.193 144.116C433.109 143.93 430.609 142.222 430.021 139.831C421.018 103.235 379.491 75.7334 330.393 75.7334C298.485 75.7334 270.061 87.1697 251.603 105.363C249.799 107.141 246.772 107.955 244.109 107.071C237.007 104.712 229.505 103.572 221.112 103.572C189.393 103.572 163.359 122.735 160.656 147.162Z" fill="white"/>
<path d="M259.023 281.828L227.445 326.386C225.168 328.275 227.014 331.233 230.469 331.233H300.832L252.123 392.022C249.48 395.321 254.993 398.876 258.539 396.159L372.448 308.899C374.878 307.038 373.062 303.968 369.531 303.968H301.418L314.242 281.829L259.023 281.828Z" fill="#FCEA2B"/>
<path d="M200.216 390.922C193.953 398.596 182.43 401.498 174.464 397.423C166.498 393.348 165.118 383.824 171.381 376.15C171.381 376.15 178.682 366.203 204.769 356.104C204.769 356.104 209.909 353.772 209.539 358.218C207.944 381.309 200.216 390.922 200.216 390.922Z" stroke="black" stroke-width="1.8" stroke-miterlimit="10" stroke-linecap="round" stroke-linejoin="round"/>
<path d="M147.714 340.974C141.451 348.647 129.928 351.55 121.963 347.474C113.997 343.399 112.616 333.876 118.879 326.202C118.879 326.202 126.18 316.254 152.268 306.155C152.268 306.155 157.407 303.824 157.037 308.27C155.442 331.361 147.714 340.974 147.714 340.974Z" stroke="black" stroke-width="1.8" stroke-miterlimit="10" stroke-linecap="round" stroke-linejoin="round"/>
<path d="M470.235 340.974C463.972 348.647 452.449 351.55 444.483 347.474C436.518 343.399 435.137 333.876 441.4 326.202C441.4 326.202 448.701 316.254 474.788 306.155C474.788 306.155 479.928 303.824 479.558 308.27C477.963 331.361 470.235 340.974 470.235 340.974Z" stroke="black" stroke-width="1.8" stroke-miterlimit="10" stroke-linecap="round" stroke-linejoin="round"/>
<path d="M400.018 390.922C393.754 398.596 382.232 401.498 374.266 397.423C366.3 393.348 364.919 383.824 371.183 376.15C371.183 376.15 378.483 366.203 404.571 356.104C404.571 356.104 409.711 353.772 409.341 358.218C407.745 381.309 400.018 390.922 400.018 390.922Z" stroke="black" stroke-width="1.8" stroke-miterlimit="10" stroke-linecap="round" stroke-linejoin="round"/>
<path d="M160.656 147.162C160.398 149.494 158.011 151.381 155.055 151.631C119.225 154.67 91.6667 182.6 91.6667 216.597C91.6667 252.623 123.226 281.828 162.157 281.828H430.89C473.661 281.828 508.333 250.964 508.333 212.892C508.333 176.406 476.49 146.541 436.193 144.116C433.109 143.93 430.609 142.222 430.021 139.831C421.018 103.235 379.491 75.7334 330.393 75.7334C298.485 75.7334 270.061 87.1697 251.603 105.363C249.799 107.141 246.772 107.955 244.109 107.071C237.007 104.712 229.505 103.572 221.112 103.572C189.393 103.572 163.359 122.735 160.656 147.162Z" stroke="black" stroke-width="2" stroke-miterlimit="10" stroke-linecap="round" stroke-linejoin="round"/>
<path d="M259.023 281.828L227.445 326.386C225.168 328.275 227.014 331.233 230.469 331.233H300.832L252.123 392.022C249.48 395.321 254.993 398.876 258.539 396.159L372.448 308.899C374.878 307.038 373.062 303.968 369.531 303.968H301.418L314.242 281.829L259.023 281.828Z" stroke="black" stroke-width="1.8" stroke-miterlimit="10" stroke-linecap="round" stroke-linejoin="round"/>
</svg>
