<svg width="600" height="537" viewBox="0 0 600 537" fill="none" xmlns="http://www.w3.org/2000/svg">
<path d="M393.599 201.375H412.5C474.632 201.375 525 246.454 525 302.062C525 357.671 474.632 402.75 412.5 402.75H262.5C255.596 402.75 250 397.741 250 391.562C250 385.384 255.596 380.375 262.5 380.375H412.5C460.825 380.375 500 345.313 500 302.062C500 258.812 460.825 223.75 412.5 223.75H399.313C399.767 227.423 400 231.156 400 234.938C400 241.116 394.404 246.125 387.5 246.125C380.596 246.125 375 241.116 375 234.938C375 191.687 335.825 156.625 287.5 156.625H275C219.772 156.625 175 196.696 175 246.125V257.312C175 263.491 169.404 268.5 162.5 268.5C135.815 268.5 112.335 283.607 103.568 305.752C101.263 311.576 94.1189 314.625 87.6117 312.562C81.1044 310.498 77.6981 304.104 80.0035 298.28C90.8882 270.783 117.961 251.043 150 246.923V246.125C150 184.338 205.964 134.25 275 134.25H287.5C336.483 134.25 378.155 162.268 393.599 201.375ZM546.443 212.473C541.846 217.082 533.944 217.482 528.794 213.367C523.644 209.252 523.197 202.18 527.795 197.571C542.015 183.316 550 164.947 550 145.438C550 102.187 510.825 67.125 462.5 67.125C422.323 67.125 387.587 91.5703 377.741 125.902C376.025 131.886 369.213 135.493 362.526 133.957C355.839 132.421 351.81 126.324 353.526 120.339C366.192 76.1715 410.841 44.75 462.5 44.75C524.632 44.75 575 89.8293 575 145.438C575 170.498 564.716 194.156 546.443 212.473ZM262.5 290.875C255.596 290.875 250 285.866 250 279.688C250 273.509 255.596 268.5 262.5 268.5H275C302.614 268.5 325 288.535 325 313.25C325 337.965 302.614 358 275 358H37.5C30.5964 358 25 352.991 25 346.812C25 340.634 30.5964 335.625 37.5 335.625H275C288.807 335.625 300 325.607 300 313.25C300 300.893 288.807 290.875 275 290.875H262.5ZM87.5 425.125C80.5964 425.125 75 420.116 75 413.938C75 407.759 80.5964 402.75 87.5 402.75H200C227.614 402.75 250 422.785 250 447.5C250 472.215 227.614 492.25 200 492.25H162.5C155.596 492.25 150 487.241 150 481.062C150 474.884 155.596 469.875 162.5 469.875H200C213.807 469.875 225 459.857 225 447.5C225 435.143 213.807 425.125 200 425.125H87.5Z" fill="white"/>
</svg>
