<svg height="16" width="16" xmlns="http://www.w3.org/2000/svg"><path d="m7.4864281 2.0000935a.5.5 0 0 0 -.4863281.5v1a.5000002.5000002 0 1 0 1 0v-1a.5.5 0 0 0 -.5136719-.5zm-3.8828125 1.611328a.49992449.49992449 0 0 0 -.3457031.853516l.7070313.708984a.499.499 0 0 0 .8535156-.355469.5.5 0 0 0 -.1464844-.351562l-.7070312-.708985a.49992449.49992449 0 0 0 -.3613282-.146484zm7.7675784 0a.502.502 0 0 0 -.335938.146484l-.707031.707032a.50027817.50027817 0 1 0 .707031.707031l.707032-.707031a.5.5 0 0 0 .148437-.353516.502.502 0 0 0 -.519531-.5zm-3.9140628 1.388672a3.0000002 3.0000002 0 0 0 -2.078125 5.1210935 3.0000002 3.0000002 0 0 0 4.2421878-4.2421875 3.0000002 3.0000002 0 0 0 -2.1640628-.878906zm-5.4570312 2.5a.50000001.50000001 0 1 0 0 1h1c.2770001 0 .5000004-.223.5-.5.0000002-.277-.2229997-.5-.5-.5zm10 0a.50000015.50000015 0 1 0 0 1h1c.277.000001.500001-.223.5-.5.000001-.277-.223-.5-.5-.5zm-7.6953125 3.1816405a.5.5 0 0 0 -.3398437.146484l-.7070313.707031a.4999467.4999467 0 1 0 .7070313.707031l.7070312-.707031a.498.498 0 0 0 .1464844-.353515.5.5 0 0 0 -.5136719-.5zm6.3710935 0a.49992449.49992449 0 0 0 -.347656.853515l.707031.707031a.499.499 0 0 0 .707032 0 .5.5 0 0 0 .148437-.353515.502.502 0 0 0 -.148437-.353516l-.707032-.707031a.49992449.49992449 0 0 0 -.359375-.146484zm-3.1894529 1.318359a.5000002.5000002 0 0 0 -.4863281.5v1a.5.5 0 1 0 1 0v-1a.5000002.5000002 0 0 0 -.5136719-.5z" fill="#f9c440"/></svg>