<svg enable-background="new 0 0 32 32" viewBox="0 0 32 32" xmlns="http://www.w3.org/2000/svg"><path d="m15.004 29.36c-7.369 0-13.364-5.995-13.364-13.363 0-7.295 5.912-13.287 13.178-13.357h.003c.143 0 .271.084.329.214.058.131.033.285-.065.391-2.146 2.312-3.329 5.363-3.329 8.59 0 6.972 5.672 12.644 12.644 12.644l.013.248.027-.25c.162-.015.316.068.381.201s.069.291-.031.399c-2.526 2.722-6.094 4.283-9.786 4.283zm-1.003-25.965c-6.49.49-11.641 5.978-11.641 12.603 0 6.971 5.672 12.642 12.644 12.642 3.267 0 6.315-1.223 8.673-3.46-7.034-.378-12.64-6.219-12.64-13.345 0-3.12 1.046-6.085 2.964-8.44zm13.999 17.965c-.199 0-.36-.161-.36-.36v-1.64h-1.64c-.199 0-.36-.161-.36-.36s.161-.36.36-.36h1.64v-1.64c0-.199.161-.36.36-.36s.36.161.36.36v1.64h1.64c.199 0 .36.161.36.36s-.161.36-.36.36h-1.64v1.64c0 .199-.161.36-.36.36zm-10-9c-.199 0-.36-.161-.36-.36v-1.64h-1.64c-.199 0-.36-.161-.36-.36s.161-.36.36-.36h1.64v-1.64c0-.199.161-.36.36-.36s.36.162.36.36v1.64h1.64c.199 0 .36.161.36.36s-.161.36-.36.36h-1.64v1.64c0 .199-.161.36-.36.36zm6-4c-.199 0-.36-.161-.36-.36v-1.64h-1.64c-.199 0-.36-.161-.36-.36s.161-.36.36-.36h1.64v-1.64c0-.199.161-.36.36-.36s.36.162.36.36v1.64h1.64c.199 0 .36.161.36.36s-.161.36-.36.36h-1.64v1.64c0 .199-.161.36-.36.36z"/><path d="m0 0h32v32h-32z" fill="none"/></svg>