<svg viewBox="0 0 72 72" xmlns="http://www.w3.org/2000/svg"><path d="m15.9345 30.2552c-.0372.4242-.3794.7675-.8028.8127-5.1613.5507-9.1317 5.6319-9.1317 11.8173 0 6.553 4.5445 11.8652 10.1505 11.8652h38.6977c6.159 0 11.1518-5.6139 11.1518-12.539 0-6.6379-4.5872-12.0711-10.3916-12.5103-.4421-.0335-.8008-.3444-.8855-.7796-1.2964-6.6564-7.2763-11.6585-14.3462-11.6585-4.5964 0-8.6908 2.0817-11.3486 5.3929-.2582.3217-.6903.4696-1.0705.3097-1.0245-.4306-2.1065-.639-3.3175-.639-4.5674 0-8.3164 3.4856-8.7056 7.9286z" style="fill:none;stroke:#000;stroke-linecap:round;stroke-linejoin:round;stroke-miterlimit:10;stroke-width:2"/></svg>