<svg height="20" viewBox="0 0 20 20" width="20" xmlns="http://www.w3.org/2000/svg"><path d="m11 7c2.4645648 0 3.8626705 1.57359992 4.0660053 3.4739903l.0621998-.0000019c1.5860485 0 2.8717949 1.2370398 2.8717949 2.7630058s-1.2857464 2.7630058-2.8717949 2.7630058h-8.25641023c-1.58604851 0-2.87179487-1.2370398-2.87179487-2.7630058 0-1.4694487 1.1922696-2.6709769 2.69686877-2.7579633l.23712589-.0050406c.20451773-1.91288113 1.60144055-3.4739903 4.06600534-3.4739903zm0 1c-1.64943703 0-3.08710357 1.27029833-3.08710357 3.0249473 0 .2780209-.25398626.4961813-.54481231.4961722l-.5499023-.0000171c-1.00415409 0-1.81818182.7787778-1.81818182 1.7394488 0 .9606711.81402773 1.7394488 1.81818182 1.7394488h8.36363638c1.0041541 0 1.8181818-.7787777 1.8181818-1.7394488 0-.960671-.8140277-1.7394488-1.8181641-1.7394488l-.54992.0000171c-.2908261.0000091-.5448123-.2181513-.5448123-.4961722 0-1.77715747-1.4376666-3.0249473-3.0871036-3.0249473zm-5.15697626-4.99906444c.66579332.0357185 1.31227784.22759223 1.89521927.56415491 1.01388329.58536634 1.69547868 1.52525281 1.97860606 2.57267149-.38325157.08309983-.74138532.20603614-1.0730138.36352688-.18172134-.87400375-.72832087-1.66279656-1.64383527-2.12621046-.18746608-.09489134-.33997672-.17154135-.53521139-.24873578.08606165 1.22736174-.03624266 2.48245902-.62529637 3.44454508-.57955852.8530082-1.32852043 1.42292223-2.55851056 1.8982952.1392035.12406978.29076952.23553974.45089271.33842448.30884131.19844134.61685989.35168024.92006648.46084314-.33614019.2215592-.63269039.4958854-.87870547.810539-.09663516-.0443464-.19237285-.0948716-.28688649-.1494376-.55063806-.3179473-1.01807716-.749633-1.37519953-1.26819364-.23405816-.33993762-.08263294-.80942243.30596732-.94848365 1.37544129-.49228779 2.11652047-1.04629692 2.54035941-1.85542095.46289532-.88357918.54840627-1.82066978.24108594-3.07967111-.09991799-.40951288.22354775-.79943098.64446169-.77684699z" fill="#212121"/></svg>