<svg height="24" viewBox="0 0 24 24" width="24" xmlns="http://www.w3.org/2000/svg"><path d="m15.7439414 9h.7560586c2.4852814 0 4.5 2.0147186 4.5 4.5s-2.0147186 4.5-4.5 4.5h-6c-.2761424 0-.5-.2238576-.5-.5s.2238576-.5.5-.5h6c1.9329966 0 3.5-1.5670034 3.5-3.5s-1.5670034-3.5-3.5-3.5h-.5274644c.0181477.1641669.0274644.3309955.0274644.5 0 .2761424-.2238576.5-.5.5s-.5-.2238576-.5-.5c0-1.93299662-1.5670034-3.5-3.5-3.5h-.5c-2.209139 0-4 1.790861-4 4v.5c0 .2761424-.22385763.5-.5.5-1.06741264 0-2.0066183.6751517-2.35726554 1.6649026-.09221516.2602902-.3779772.3965419-.63826737.3043267-.26029018-.0922151-.3965419-.3779772-.30432674-.6382673.43538722-1.2289413 1.51831959-2.1111817 2.79985965-2.295308v-.035654c0-2.76142375 2.23857625-5 5-5h.5c1.9593282 0 3.6261868 1.25221144 4.2439414 3zm6.1137927.4959942c-.1839111.20598866-.4999872.22388608-.7059759.039975s-.2238861-.49998726-.039975-.70597592c.5688277-.63711251.8882168-1.458056.8882168-2.32999328 0-1.93299662-1.5670034-3.5-3.5-3.5-1.607098 0-2.996528 1.09252816-3.3903452 2.62689038-.0686509.26747274-.3411329.42864967-.6086057.35999876-.2674727-.06865091-.4286497-.34113296-.3599987-.60860569.5066493-1.97397074 2.2925933-3.37828345 4.3589496-3.37828345 2.4852814 0 4.5 2.01471863 4.5 4.5 0 1.12000205-.4113624 2.17734952-1.1422659 2.9959942zm-11.3577341 3.5040058c-.2761424 0-.5-.2238576-.5-.5s.2238576-.5.5-.5h.5c1.1045695 0 2 .8954305 2 2s-.8954305 2-2 2h-9.5c-.27614237 0-.5-.2238576-.5-.5s.22385763-.5.5-.5h9.5c.5522847 0 1-.4477153 1-1s-.4477153-1-1-1zm-7 6c-.27614237 0-.5-.2238576-.5-.5s.22385763-.5.5-.5h4.5c1.1045695 0 2 .8954305 2 2s-.8954305 2-2 2h-1.5c-.27614237 0-.5-.2238576-.5-.5s.22385763-.5.5-.5h1.5c.55228475 0 1-.4477153 1-1s-.44771525-1-1-1z"/></svg>